<svg class="icon" viewBox="0 0 1024 1024" xmlns="http://www.w3.org/2000/svg" width="22" height="22"><path d="M849.92 51.2H174.08c-67.866 0-122.88 55.014-122.88 122.88v675.84c0 67.866 55.014 122.88 122.88 122.88h675.84c67.866 0 122.88-55.014 122.88-122.88V174.08c0-67.866-55.014-122.88-122.88-122.88zM512 752.968a363.29 363.29 0 0 1-100.27-14.04 30.991 30.991 0 0 0-9.032-1.351c-5.898 0-11.254 1.802-16.312 4.73l-67.256 38.82c-1.874 1.081-3.687 1.9-5.914 1.9a10.24 10.24 0 0 1-10.245-10.24c0-2.53 1.014-5.058 1.659-7.48l13.844-51.64c.589-2.161 1.075-4.25 1.075-6.518a20.485 20.485 0 0 0-8.596-16.691C246.185 643.538 204.8 574.11 204.8 496.963c0-141.384 137.533-256 307.2-256 103.68 0 195.308 42.854 250.931 108.41L452.572 487.511a30.49 30.49 0 0 1-27.284-3.123l-65.992-46.981a10.24 10.24 0 0 0-16.369 8.212c0 1.465.374 2.97.978 4.311l55.926 122.711 1.341 2.95a20.45 20.45 0 0 0 27.08 8.268l2.243-1.3 353.71-204.217c22.308 35.472 34.995 75.807 34.995 118.62 0 141.39-137.539 256.006-307.2 256.006z" fill="#24B340"/></svg>