<?xml version="1.0" encoding="utf-8" ?>
<svg baseProfile="full" height="8px" version="1.1" width="40px" xmlns="http://www.w3.org/2000/svg" xmlns:ev="http://www.w3.org/2001/xml-events" xmlns:xlink="http://www.w3.org/1999/xlink"><defs /><g transform="scale(1,-1) translate(0, -6)"><path d="M1.026 5.0760000000000005 0.516 4.464C0.858 4.242 1.374 3.918 1.608 3.72L2.148 4.41C1.8840000000000001 4.59 1.356 4.89 1.026 5.0760000000000005ZM0.648 3.402 0.186 2.754C0.534 2.568 1.068 2.2800000000000002 1.314 2.106L1.8 2.832C1.53 2.994 0.984 3.2520000000000002 0.648 3.402ZM0.402 0.084 1.1400000000000001 -0.504C1.506 0.096 1.86 0.744 2.178 1.374L1.542 1.956C1.17 1.254 0.72 0.528 0.402 0.084ZM3.282 4.632 2.436 4.83C2.2920000000000003 4.266 2.0220000000000002 3.666 1.704 3.3000000000000003C1.8900000000000001 3.21 2.208 3.012 2.388 2.874H1.866V2.088H5.838V2.874H4.308V3.408H5.61V4.176H4.308V5.034H3.42V4.176H3.132C3.192 4.3260000000000005 3.24 4.482 3.282 4.632ZM3.42 3.408V2.874H2.472C2.58 3.024 2.694 3.21 2.7960000000000003 3.408ZM3.15 0.47400000000000003V1.032H4.626V0.47400000000000003ZM5.538 1.8H2.2800000000000002V-0.558H3.15V-0.28800000000000003H4.626V-0.51H5.538Z" fill="#334155" /><path d="M10.344000000000001 5.196 9.624 4.884C9.725999999999999 4.692 9.846 4.452 9.93 4.248H8.592V3.462H9.588000000000001C9.396 3.048 9.186 2.694 9.096 2.58C8.97 2.4 8.868 2.2920000000000003 8.736 2.2560000000000002C8.826 2.052 8.952 1.674 8.994 1.518C9.120000000000001 1.566 9.3 1.602 9.911999999999999 1.6320000000000001C9.629999999999999 1.236 9.384 0.93 9.252 0.798C9.0 0.516 8.85 0.366 8.646 0.312C8.748000000000001 0.10200000000000001 8.886 -0.28800000000000003 8.928 -0.444C9.144 -0.34800000000000003 9.443999999999999 -0.312 11.082 -0.162C11.118 -0.3 11.148 -0.426 11.16 -0.54L11.934000000000001 -0.258C11.862 0.198 11.586 0.864 11.292 1.374L10.578 1.1280000000000001C10.668 0.9540000000000001 10.758 0.762 10.836 0.5640000000000001L9.948 0.504C10.542 1.17 11.142 1.986 11.616 2.838L10.854 3.222C10.722000000000001 2.946 10.572 2.67 10.41 2.406L9.828 2.394C10.062000000000001 2.718 10.29 3.09 10.475999999999999 3.462H11.783999999999999V4.248H10.506L10.77 4.374C10.68 4.602 10.506 4.938 10.344000000000001 5.196ZM8.466000000000001 2.22H7.8V2.682H8.328V3.456H6.93L7.122 3.75H8.436V4.578H7.536L7.65 4.884L6.888 5.118C6.72 4.6080000000000005 6.426 4.11 6.09 3.7920000000000003C6.216 3.5820000000000003 6.42 3.12 6.48 2.928L6.624 3.078V2.682H6.978V2.22H6.3V1.446H6.978V0.708C6.978 0.438 6.804 0.258 6.66 0.168C6.792 0.0 6.9719999999999995 -0.372 7.026 -0.5760000000000001C7.152 -0.444 7.38 -0.3 8.532 0.366C8.466000000000001 0.54 8.388 0.888 8.364 1.122L7.8 0.8160000000000001V1.446H8.466000000000001Z" fill="#334155" /><path d="M16.344 0.192H13.998V0.396H16.344ZM16.386 5.04 15.546 5.19C15.443999999999999 4.8180000000000005 15.252 4.422 15.012 4.152V4.734H13.68L13.8 5.0280000000000005L12.942 5.19C12.774000000000001 4.692 12.468 4.17 12.12 3.846C12.33 3.762 12.702 3.5820000000000003 12.876 3.468C13.044 3.648 13.218 3.882 13.374 4.146H13.494C13.65 3.93 13.806000000000001 3.666 13.866 3.498L14.484 3.732L14.61 3.462H12.348V2.376H13.11V-0.582H13.998V-0.438H16.344V-0.582H17.214V1.02H13.998V1.218H16.89V2.376H17.646V3.462H15.486C15.42 3.612 15.324 3.786 15.24 3.924C15.396 3.846 15.552 3.7560000000000002 15.648 3.696C15.762 3.822 15.876 3.972 15.984 4.146H16.128C16.308 3.924 16.494 3.666 16.572 3.492L17.292 3.8160000000000003C17.238 3.912 17.16 4.026 17.064 4.146H17.748V4.734H16.278C16.32 4.836 16.356 4.938 16.386 5.04ZM13.998 2.634H13.188V2.82H16.758V2.634ZM13.998 2.0220000000000002H16.038V1.836H13.998ZM15.228 3.93 14.592 3.798C14.544 3.9 14.466000000000001 4.0200000000000005 14.376 4.146H15.006L14.928 4.0680000000000005Z" fill="#334155" /><path d="M21.21 2.754V3.12H21.66V2.754ZM22.386 3.12H22.794V2.754H22.386ZM21.21 3.798V4.158H21.66V3.798ZM22.386 4.158H22.794V3.798H22.386ZM23.874000000000002 0.402H22.47V0.834H23.676000000000002V1.614H22.47V2.0220000000000002H23.622V4.89H20.424V2.0220000000000002H21.576V1.614H20.406V0.834H21.576V0.402H20.01V-0.384H23.874000000000002ZM18.108 0.8280000000000001 18.3 -0.06C18.9 0.132 19.644 0.372 20.322 0.606L20.172 1.434L19.626 1.26V2.298H20.13V3.096H19.626V4.014H20.238V4.8180000000000005H18.18V4.014H18.798000000000002V3.096H18.234V2.298H18.798000000000002V1.014C18.54 0.9420000000000001 18.306 0.876 18.108 0.8280000000000001Z" fill="#334155" /><path d="M26.196 0.9540000000000001 25.308 1.272C25.038 0.918 24.564 0.534 24.12 0.3C24.336 0.168 24.702 -0.108 24.882 -0.276C25.308 0.018000000000000002 25.848 0.504 26.196 0.9540000000000001ZM28.374 1.302 27.654 0.84C28.104 0.516 28.674 0.042 28.926000000000002 -0.276L29.706 0.24C29.412 0.5700000000000001 28.818 1.014 28.374 1.302ZM28.428 2.976 27.774 2.634 28.038 2.346 26.694 2.2560000000000002C27.402 2.616 28.092 3.0540000000000003 28.71 3.552L28.092 4.116C27.846 3.9 27.576 3.69 27.306 3.492L26.262 3.444C26.568 3.654 26.862000000000002 3.894 27.12 4.134C27.894 4.206 28.637999999999998 4.32 29.286 4.47L28.662 5.19C27.624 4.944 25.986 4.8 24.498 4.758C24.582 4.566 24.69 4.212 24.708 3.996C25.092 4.002 25.494 4.0200000000000005 25.902 4.038C25.644 3.822 25.404 3.654 25.296 3.588C25.116 3.468 24.978 3.39 24.828 3.366C24.912 3.156 25.032 2.79 25.068 2.634C25.212 2.688 25.404 2.724 26.19 2.778C25.872 2.592 25.608 2.46 25.451999999999998 2.388C25.068 2.196 24.852 2.1 24.594 2.064C24.678 1.848 24.804 1.452 24.84 1.302C25.056 1.3860000000000001 25.332 1.428 26.568 1.536V0.354C26.568 0.28200000000000003 26.538 0.264 26.436 0.264C26.328 0.264 25.938 0.264 25.656 0.276C25.782 0.048 25.932 -0.324 25.974 -0.5700000000000001C26.418 -0.5700000000000001 26.778 -0.558 27.072 -0.432C27.378 -0.306 27.456 -0.078 27.456 0.324V1.614L28.554000000000002 1.704C28.698 1.506 28.818 1.326 28.902 1.17L29.586 1.584C29.346 1.98 28.872 2.5500000000000003 28.428 2.976Z" fill="#334155" /><path d="M34.884 0.468V2.0460000000000003H34.025999999999996V0.462C34.025999999999996 -0.234 34.164 -0.486 34.775999999999996 -0.486C34.884 -0.486 35.016 -0.486 35.13 -0.486C35.634 -0.486 35.82 -0.18 35.88 0.84C35.67 0.894 35.316 1.038 35.147999999999996 1.176C35.136 0.39 35.118 0.246 35.04 0.246C35.016 0.246 34.968 0.246 34.95 0.246C34.89 0.246 34.884 0.27 34.884 0.468ZM30.18 0.462 30.384 -0.402C30.99 -0.15 31.74 0.17400000000000002 32.424 0.492L32.256 1.224C31.5 0.93 30.696 0.624 30.18 0.462ZM34.26 5.16 33.432 4.962C33.498 4.788 33.57 4.566 33.618 4.392H32.346000000000004V3.618H33.21C32.994 3.33 32.754 3.0420000000000003 32.658 2.952C32.514 2.82 32.328 2.766 32.19 2.736C32.262 2.5500000000000003 32.394 2.112 32.43 1.9020000000000001C32.526 1.944 32.64 1.98 32.892 2.016C32.856 1.11 32.802 0.48 31.926 0.09C32.124 -0.07200000000000001 32.364 -0.41400000000000003 32.46 -0.636C33.564 -0.096 33.708 0.8220000000000001 33.756 2.04H33.036C33.39 2.094 33.966 2.154 34.956 2.262C35.034 2.112 35.094 1.962 35.136 1.842L35.862 2.226C35.712 2.616 35.34 3.186 35.022 3.606L34.35 3.27L34.572 2.94L33.653999999999996 2.856C33.84 3.096 34.044 3.366 34.230000000000004 3.618H35.766V4.392H34.146L34.53 4.494C34.476 4.668 34.356 4.956 34.26 5.16ZM30.408 0.972C30.582 1.08 30.858 1.176 32.268 1.506C32.244 1.692 32.244 2.0340000000000003 32.268 2.274L31.596 2.136C31.926 2.562 32.238 3.0300000000000002 32.484 3.486L31.734 3.96C31.638 3.75 31.53 3.54 31.422 3.342L31.158 3.33C31.464 3.7800000000000002 31.764 4.308 31.956 4.8L31.062 5.208C30.894 4.542 30.546 3.834 30.426 3.654C30.3 3.468 30.198 3.354 30.06 3.3120000000000003C30.168 3.0660000000000003 30.318 2.628 30.366 2.448C30.456 2.49 30.588 2.5260000000000002 30.936 2.568C30.798000000000002 2.37 30.684 2.22 30.612 2.148C30.426 1.932 30.3 1.812 30.126 1.77C30.228 1.548 30.366 1.1400000000000001 30.408 0.972Z" fill="#334155" /></g></svg>